<?xml version="1.0" encoding="utf-8"?>
<!-- Generator: Adobe Illustrator 25.4.1, SVG Export Plug-In . SVG Version: 6.00 Build 0)  -->
<svg version="1.1" id="Ebene_1" xmlns="http://www.w3.org/2000/svg" xmlns:xlink="http://www.w3.org/1999/xlink" x="0px" y="0px"
	 viewBox="0 0 130 24.8" style="enable-background:new 0 0 130 24.8;" xml:space="preserve">
<style type="text/css">
	.st0{clip-path:url(#SVGID_00000156571067042836753660000004907214437749340050_);fill:#3D99D4;}
	.st1{fill:#FFDD00;}
</style>
<g>
	<g>
		<defs>
			<rect id="SVGID_1_" width="130" height="24.8"/>
		</defs>
		<clipPath id="SVGID_00000155138503790998183570000012289314701609971878_">
			<use xlink:href="#SVGID_1_"  style="overflow:visible;"/>
		</clipPath>
		<path style="clip-path:url(#SVGID_00000155138503790998183570000012289314701609971878_);fill:#3D99D4;" d="M112.1,7.5l-5.8,15.2
			l-5.8-15.2h-1.3l6.4,16.9h1.3l6.4-16.9C113.3,7.5,112.1,7.5,112.1,7.5z M76,7.5l-5.8,15.2L64.4,7.5h-1.3l6.4,16.9h1.3l6.4-16.9H76
			z M121.8,23.5c-4.1,0-7.3-3.2-7.4-7.6H130c0.1-4.3-3.4-8.8-8.4-8.8c-4.6,0-8.4,4-8.4,8.9s3.8,8.8,8.6,8.8c3.9,0,6.6-2,7.8-5.6
			h-1.3C127.6,21.4,125.8,23.5,121.8,23.5 M121.6,8.3c3.5,0,6.5,2.8,7.1,6.4h-14.1C115.2,11.1,118.1,8.3,121.6,8.3 M91.7,12.1
			c0-3.2-2.4-5-6.6-5c-3.8,0-6.3,1.7-7,4.7h1.2C80,9.5,82,8.3,85,8.3c2.5,0,5.4,0.7,5.4,3.8c0,2.1-2.5,2.5-6.2,2.8
			c-3.6,0.3-7.1,1.2-7.1,5c0,3.2,3.2,4.7,6.1,4.7c3.3,0,5.9-1.2,7.2-3.1v0.3c0,1,0.2,1.8,0.5,2.5h1.2c-0.3-0.7-0.5-1.9-0.5-2.8
			L91.7,12.1L91.7,12.1z M90.5,18.2c0,3.6-3.6,5.2-7.2,5.2c-1.7,0-4.8-0.8-4.8-3.5c0-2.3,1.7-3.5,6-3.9c2.3-0.2,4.8-0.4,6.1-1.6
			L90.5,18.2L90.5,18.2z M96.2,18.5V0H95v18.5c0,3.8,2.1,6.2,5.7,5.8v-1.1C97.5,23.4,96.2,21.4,96.2,18.5 M8.1,13.8
			c-2.1-0.3-3.3-0.6-3.3-1.5c0-0.6,0.8-1.3,2.8-1.3c1.6,0,2.5,0.6,2.8,1.4h4.5c-0.6-3.2-3.4-5.3-7.3-5.3c-4.9,0-7.2,2.8-7.2,5.4
			c0,3.8,4,4.6,7,5c2.9,0.5,3.5,0.9,3.5,1.8c0,1-1.3,1.5-3,1.5c-1.3,0-3-0.5-3.6-2H0c0.5,3.6,3.7,5.9,7.9,5.9c4.3,0,7.4-2.4,7.4-5.7
			C15.3,15.4,12.3,14.5,8.1,13.8 M24.6,7.1c-4.7,0-8.6,4-8.6,8.9s3.9,8.8,8.6,8.8c4.2,0,7.1-2.3,8.1-5.8h-4.6c-0.7,1.3-2.1,2-3.5,2
			c-2,0-3.6-1.3-4.2-3.3h12.7C33.7,10.9,29.6,7.1,24.6,7.1 M20.5,14.1c0.6-2,2.2-3.2,4.1-3.2c2.1,0,3.7,1.2,4.2,3.2H20.5z M62,11.4
			V7.5H46.4V0.3l-4.3,2.6v4.6h-2v3.8h2v13h4.3v-13h10.1l-8.9,9.3v3.7h14.6v-3.9h-9L62,11.4z M34.5,24.4h4.3V7.5h-4.3V24.4z"/>
	</g>
</g>
<polygon class="st1" points="38.8,1.1 34.5,1.1 34.5,7 38.8,4.3 "/>
</svg>
